# xmcd
#
# Track frame offsets: 
#        150
#        13167
#        21617
#        32532
#        44122
#        55042
#        67132
#        80182
#        90582
#        103655
#
# Disc length: 1467 seconds
#
# Revision: 3
# Processed by: cddbd v1.5.2PL0 Copyright (c) Steve Scherf et al.
# Submitted via: ExactAudioCopy v0.99pb4
#
DISCID=8b05b90a
DTITLE=Jerry Lee Lewis - Greatest Hits
DYEAR=1900
DGENRE=Oldies
TTITLE0=Whole Lotta Shakin' Goin' On
TTITLE1=Great Balls Of Fire
TTITLE2=What'd I Say
TTITLE3=Drinkin' Wine, Spoo-Dee-O-Dee
TTITLE4=Little Queenie
TTITLE5=Johnny B Goode
TTITLE6=Sweet Little 16
TTITLE7=Good Golly Miss Molly
TTITLE8=You Win Again
TTITLE9=Hound Dog
EXTD=
EXTT0=
EXTT1=
EXTT2=
EXTT3=
EXTT4=
EXTT5=
EXTT6=
EXTT7=
EXTT8=
EXTT9=
PLAYORDER=
